<mxfile host="app.diagrams.net" modified="2023-07-14T01:54:20.882Z" agent="Mozilla/5.0 (Windows NT 10.0; Win64; x64) AppleWebKit/537.36 (KHTML, like Gecko) Chrome/91.0.4472.77 Safari/537.36" version="21.5.0" etag="jRpx2PwxcCivAn4gVYZD" type="github">
  <diagram name="第 1 页" id="Q8VzYoy-hQfeX_PJ2re1">
    <mxGraphModel>
      <root>
        <mxCell id="0" />
        <mxCell id="1" parent="0" />
      </root>
    </mxGraphModel>
  </diagram>
</mxfile>
